<svg width="170" height="39" viewBox="0 0 170 39" fill="none" xmlns="http://www.w3.org/2000/svg">
  <path d="M0 39L8.48026 34.1265L0 29.251V39Z" fill="#A8E300"/>
  <path d="M16.9605 34.1264L0 24.3755L8.48026 19.5L25.4408 29.251L16.9605 34.1264Z" fill="#A8E300"/>
  <path d="M16.9605 4.87548L25.4408 9.75095L33.9211 14.6245L25.4408 19.5L0 4.87548L8.48026 0L16.9605 4.87548Z" fill="#A8E300"/>
  <path d="M48.6608 16.1962H52.2586V20.4156H48.5678V31.4064H44.3229V20.4156H42.4102V16.1962H44.4083C44.4937 11.8911 46.2357 9.82532 50.5166 9.82532C51.1162 9.82532 51.6589 9.88254 52.2586 9.96838V13.728C51.7443 13.6708 51.1181 13.6135 50.6608 13.6135C49.2623 13.6135 48.6342 14.4452 48.6627 15.9387V16.1962H48.6608Z" fill="#102217"/>
  <path d="M63.419 20.8448C61.3639 20.8448 59.584 21.1023 58.5555 21.6478V31.4045H54.3125V16.1963H58.5384V19.1815C59.5935 17.2588 60.9635 15.9674 62.677 15.9674C62.8763 15.9674 63.2197 15.996 63.419 16.0246V20.8448Z" fill="#102217"/>
  <path d="M71.4368 20.0703C69.8105 20.0703 67.727 20.5014 66.1273 20.9878V16.7418C67.6112 16.3107 69.6663 15.9102 71.8087 15.9102C77.0612 15.9102 78.6893 18.0618 78.7462 22.5672L78.8316 31.4064H74.5886V29.1384C73.0193 30.6587 71.4671 31.7783 68.9547 31.7783C66.615 31.7783 64.873 30.2867 64.873 27.559C64.873 24.5758 66.9585 23.1681 69.9832 23.1127L74.4368 23.0555V22.7961C74.4368 21.0164 73.6379 20.0703 71.4387 20.0703H71.4368ZM74.4349 27.0726V24.8352L70.9529 25.0355C69.4974 25.1499 68.9832 25.6954 68.9832 26.4985C68.9832 27.3587 69.4974 27.9329 70.9813 27.9329C72.2375 27.9329 73.4653 27.5037 74.4349 27.0726Z" fill="#102217"/>
  <path d="M129.609 20.0703C127.982 20.0703 125.899 20.5014 124.299 20.9878V16.7418C125.783 16.3107 127.838 15.9102 129.981 15.9102C135.233 15.9102 136.861 18.0618 136.918 22.5672L137.003 31.4064H132.738V29.1384C131.168 30.6587 129.637 31.7783 127.125 31.7783C124.785 31.7783 123.043 30.2867 123.043 27.559C123.043 24.5758 125.128 23.1681 128.153 23.1127L132.607 23.0555V22.7961C132.607 21.0164 131.808 20.0703 129.609 20.0703ZM132.607 27.0726V24.8352L129.125 25.0355C127.669 25.1499 127.155 25.6954 127.155 26.4985C127.155 27.3588 127.669 27.9329 129.153 27.9329C130.409 27.9329 131.637 27.5037 132.607 27.0726Z" fill="#102217"/>
  <path d="M102.181 21.045V31.4044H97.9414V16.1962H101.839V18.4337C103.239 17.0565 104.923 15.9082 106.892 15.9082C108.575 15.9082 110.175 16.5396 110.917 18.5481C112.344 17.1423 114.086 15.9082 116.113 15.9082C118.369 15.9082 120.16 17.0851 120.217 21.3597L120.302 31.4044H116.056L116.141 22.7388C116.141 20.9019 115.428 20.2992 114.058 20.2992C113.059 20.2992 111.915 20.7017 111.173 21.1022C111.173 21.1881 111.259 31.4044 111.259 31.4044H107.035L107.092 22.7388C107.12 20.9019 106.378 20.2992 105.036 20.2992C104.067 20.2992 102.924 20.673 102.182 21.045H102.181Z" fill="#102217"/>
  <path d="M145.992 31.6639C142.596 31.6639 140.597 30.2009 140.626 25.953L140.683 20.4137H138.855V17.9168L140.882 16.7686L143.852 12.6942H145.023L144.966 16.1944H148.877V20.4137H144.937V25.293C144.937 26.8705 145.565 27.3302 146.907 27.3302C147.62 27.3302 148.391 27.1871 148.905 27.0727V31.2615C148.22 31.4923 147.106 31.6639 145.992 31.6639Z" fill="#102217"/>
  <path d="M155.964 31.4045H151.721V16.1963H155.964V31.4064V31.4045ZM156.414 12.3355C156.414 13.7642 155.262 14.9221 153.841 14.9221C152.419 14.9221 151.268 13.7642 151.268 12.3355C151.268 10.9069 152.419 9.74902 153.841 9.74902C155.262 9.74902 156.414 10.9069 156.414 12.3355Z" fill="#102217"/>
  <path d="M169.826 20.8161C169.028 20.4423 167.942 20.1561 166.544 20.1561C164.06 20.1561 162.69 21.5333 162.69 23.8013C162.69 26.0693 163.946 27.5037 166.572 27.4751C167.828 27.4751 169.056 27.1871 169.997 26.7579V31.0516C169.084 31.454 167.741 31.7497 166.399 31.7497C161.462 31.7497 158.492 28.9953 158.492 24.1446C158.492 18.6645 161.974 16.118 166.627 16.118C167.684 16.118 168.654 16.2325 169.825 16.5491V20.8161H169.826Z" fill="#102217"/>
  <path d="M91.9607 28.1332C90.2187 28.1332 87.1067 28.3048 85.9947 28.3048C85.5658 28.3048 85.3666 28.1046 85.3666 27.7879C85.3666 27.5018 85.5374 27.0993 85.7954 26.6682C86.4805 26.8113 87.2224 26.8685 88.0213 26.8685C91.8753 26.8685 94.9019 25.003 94.9019 21.0717C94.9019 19.4637 94.3023 18.2315 93.2738 17.3407C93.9702 16.6998 94.678 16.099 95.3459 15.5363L92.659 13.3599C92.0878 14.2907 91.6153 15.315 91.2187 16.2783C90.3325 15.9922 89.3059 15.8472 88.1636 15.8472C84.4538 15.8472 81.2545 17.6841 81.2545 21.6154C81.2545 23.7384 82.283 25.2319 83.9946 26.0636C82.4823 27.21 81.653 28.2724 81.653 29.3349C81.653 29.8804 81.9377 30.4259 82.5392 30.7693C81.3399 31.6009 80.3418 32.692 80.3418 33.8689C80.3418 35.9347 82.5392 36.6824 87.507 36.6824C92.8734 36.6824 96.1012 35.5055 96.1012 31.6315C96.1012 29.3368 94.845 28.1313 91.9607 28.1313V28.1332ZM88.0497 19.3512C90.1333 19.3512 91.046 20.2115 91.046 21.6478C91.046 23.168 90.1048 24.0283 88.1636 24.0283C86.0801 24.0283 85.1939 23.1375 85.1939 21.7031C85.1939 20.1829 86.0801 19.3512 88.0497 19.3512ZM87.9074 33.3272C85.1389 33.3272 84.2242 33.0125 84.2242 32.1503C84.2242 31.8356 84.3666 31.4903 84.5962 31.1164C87.4501 31.1164 90.306 31.0592 91.0195 31.0592C91.7899 31.0592 92.1884 31.2595 92.1884 31.805C92.1884 32.6939 91.2187 33.3253 87.9055 33.3253L87.9074 33.3272Z" fill="#102217"/>
</svg>
